<?xml version="1.0" encoding="utf-8"?>
<!-- Generator: Adobe Illustrator 22.0.1, SVG Export Plug-In . SVG Version: 6.00 Build 0)  -->
<svg version="1.1" id="Layer_1" xmlns="http://www.w3.org/2000/svg" xmlns:xlink="http://www.w3.org/1999/xlink" x="0px" y="0px"
	 viewBox="0 0 1226 309" style="enable-background:new 0 0 1226 309;" xml:space="preserve">
<style type="text/css">
	.st0{fill:#173839;}
	.st1{fill:#6CDE93;}
</style>
<g>
	<path class="st0" d="M1056.8,128.3c3.4,0,6.7,0,10.1,0c4.4,0,5.8,1,6.9,5.3c4.8,18.5,9.6,37,14.5,55.5c0.2,0.6,0.4,1.2,0.5,1.9
		c0.5,2.6,2.1,4.1,4.7,4.2s4.1-1.5,4.9-3.9c3.3-10.2,6.7-20.3,10-30.4c3-9.2,6.1-18.4,9.1-27.7c1.1-3.4,3.1-4.9,6.7-4.8
		c4.4,0.2,8.9,0.2,13.3,0c3.6-0.1,5.6,1.4,6.7,4.8c6.2,19,12.6,37.9,18.9,56.9c0.5,1.4,0.8,2.9,2,4c3,2.7,7,1.1,8.2-3.4
		c2.9-11,5.7-22,8.6-32.9c2.1-8.2,4.3-16.3,6.4-24.5c1-3.7,2.4-4.8,6.2-4.8c7.2,0,14.3-0.1,21.5,0c4.4,0,6.5,2.8,5.2,7.1
		c-11.8,38.7-23.6,77.5-35.5,116.2c-1.2,3.9-2.5,4.7-6.6,4.8c-5.3,0-10.6,0-15.9,0c-4.5,0-5.6-0.8-7-5.1
		c-6.6-19.7-13.1-39.3-19.7-59c-0.2-0.6-0.4-1.2-0.6-1.8c-0.7-2.3-2.1-3.8-4.6-3.8c-2.7-0.1-4.2,1.5-5,3.9
		c-3.5,10.6-7,21.1-10.5,31.7c-3.3,9.8-6.6,19.7-9.8,29.5c-1.1,3.4-3.1,4.9-6.7,4.8c-5.4-0.2-10.8-0.1-16.3,0
		c-3.4,0.1-5.4-1.2-6.4-4.6c-11.9-38.8-23.9-77.6-35.8-116.5c-1.3-4.3,0.7-7,5.2-7.1C1049.5,128.3,1053.1,128.3,1056.8,128.3z"/>
	<path class="st0" d="M796.1,192.2c0-19.5,0-39,0-58.5c0-4.4,1-5.4,5.3-5.4c6.8,0,13.7,0.1,20.5,0c3.1,0,5.1,0.7,5.5,4.3
		c0.3,3.1,3.3,4,6.2,2.1c8.7-5.8,18.2-8,28.6-7.8c19.7,0.5,35.9,14.3,39.2,33.7c0.8,4.9,1.3,9.9,1.3,14.9c0,25,0,50.1,0,75.1
		c0,4.7-1,5.7-5.7,5.7c-6.9,0-13.9,0-20.8,0c-4.6,0-5.6-0.9-5.6-5.5c0-23.3,0-46.6,0-69.9c0-4.4-0.1-8.9-1.9-13.1
		c-3.5-8.4-12.3-13.3-21.6-12.2c-9.9,1.2-17,7.5-18.6,16.8c-0.5,3-0.6,6-0.6,9.1c0,23,0,46,0,68.9c0,5.1-0.8,5.9-5.7,5.9
		c-7,0-14.1,0-21.1,0c-3.9,0-5-1.1-5-5C796.1,231.7,796.1,212,796.1,192.2z"/>
	<path class="st0" d="M230.1,257.7c-14.4,0.2-27.9-1.7-40.3-8.6c-2-1.1-3.9-2.3-5.7-3.7c-4-3.1-4.5-8.3-1-12
		c3.2-3.4,6.5-6.7,9.9-9.9c3.1-2.9,6.6-3,10.7-0.4c12.3,7.5,25.5,8.9,39.4,6c2.6-0.5,4.9-1.7,7-3.2c3.9-2.7,5.4-6.4,4.6-11
		c-0.8-4.7-3.6-7.5-8.2-8.6c-5.6-1.3-11.4-1.4-17.1-2c-9-0.9-18.1-1.5-26.6-5.2c-11.5-5-17.6-13.6-18.9-26.1
		c-2.6-26,14.7-40.7,34.6-44.7c15.1-3,30.2-1.7,45,2.5c6.8,1.9,10.8,7.5,10.6,13.8c-0.2,6.5-4.6,11.6-11,13.1
		c-2.9,0.7-5.6,0.1-8.2-0.9c-9.1-3.5-18.5-4.5-28.1-3.3c-4.2,0.5-7.9,2.2-10.4,5.9c-4,5.9-1.7,13.3,5.1,15.5
		c6.2,2.1,12.8,1.9,19.3,2.6c8,0.9,15.9,1.5,23.5,4.4c13.6,5.4,21.3,16.6,21.9,31.2c1.1,24.4-14.4,37.7-35.2,42.4
		C244,257.4,236.9,258,230.1,257.7z"/>
	<path class="st0" d="M554.6,194.3c0-14.6,1.5-26.8,7.2-38.1c7.3-14.5,18.5-24,34.5-27.4c17-3.6,33.3-2.5,48.3,7.2
		c1,0.6,2,1.3,2.9,2.1c3.8,3.1,4.3,8.1,1,11.7c-3.4,3.6-7,7.1-10.6,10.6c-3.2,3-6.7,3.1-10.3,0.6c-16.4-11.3-35-4.4-39.4,15
		c-2.6,11.5-2.5,23.3,0.6,34.8c4.7,17.6,23.4,24.1,38.3,13.4c4.3-3.1,7.7-2.8,11.6,0.9c3,3,6,5.9,9,8.9c4.5,4.5,4.1,9.4-1,13.2
		c-8.6,6.4-18.3,9.7-28.8,10.5c-8.8,0.7-17.5-0.2-26-2.8c-18.8-6-29-19.9-34.4-37.9C555,208.8,554.5,200.5,554.6,194.3z"/>
	<path class="st0" d="M410.5,159c-3-12.9-9.4-23.5-22.3-28.3c-15.5-5.8-30.9-6-45.2,4c-2.8,2-5.6,0.9-6-2.3c-0.4-3.1-2-4-4.8-4
		c-6.8,0-13.7,0-20.5,0c-4.9,0-5.9,0.9-5.9,5.9c0,27.2,0,54.4,0,81.6c0,27.4,0,54.8,0,82.3c0,4.2,1.1,5.2,5.2,5.2
		c7.3,0,14.5,0,21.8,0c4.1,0,5.1-1,5.2-5.2c0-4,0-8,0-12c0-10.5,0-21,0-31.5c0-1.7,0.1-3.3,1.8-4.2c1.8-1,3.3-0.2,4.7,0.9
		c2.8,2.1,5.9,3.6,9.3,4.6c8.3,2.5,16.7,2.8,25.1,1.2c15.3-2.9,25.7-11.5,30.4-26.7c2.8-9.3,3.8-18.9,3.8-28.5
		C413.1,187.4,413.8,173.1,410.5,159z M381.2,190.7c0,9.2-0.1,16.9-2.5,24.3c-3.1,9.9-9.4,14.3-19.9,14.1c-9.8-0.2-15.9-5-18.7-14.9
		c-2.1-7.5-2.1-15.2-2.1-22.9c0-7.3,0.2-14.5,2.3-21.6c2-6.7,5.9-11.9,13.1-13.4c7.7-1.6,15.2-1.2,21,5.1c4.2,4.5,5.3,10.3,6,16.1
		C381,182.5,381.4,187.3,381.2,190.7z"/>
	<path class="st1" d="M168.9,71.9c-7.2-38.7-41.8-67.2-87.1-67.2C75,4.8,63.2,7,52.2,12.6C21.9,27.9,5.8,52.6,4.5,86.5
		c-0.6,16.9,4.5,32.7,12.1,47.6c15.4,30.5,37.9,55.2,63.8,77.1c4.8,4.1,9.1,4,14,0c12.6-10.5,24.2-22,34.9-34.4
		c13-15.2,24.4-31.5,32.3-50C169.1,109.2,172.5,91,168.9,71.9z M144.7,118.1c-7.4,17.9-18.6,33.4-31.2,47.9
		c-8,9.2-16.7,17.9-26,26.2c-7.1-6.1-13.6-12.6-19.8-19.3c-13.2-14.1-25-29.3-33.7-46.6c-5.7-11.4-10.1-23.4-10.3-36.2
		c-0.4-25.8,10.5-45.8,33.1-58.3c37.5-20.7,83.1,0,93.1,41.8C153.4,88.9,150.5,103.7,144.7,118.1z"/>
	<path class="st0" d="M533.4,209.1c0-14.1,0.4-28.2-0.1-42.3c-0.6-18.4-11.1-31.3-28.7-36.6c-13.3-4-26.9-4.1-40.5-2.3
		c-10.9,1.4-20.2,6.1-27.9,13.9c-2.4,2.4-2.4,4-0.1,6.4c4.6,4.6,9.3,9.1,13.9,13.7c2.1,2.1,4,2.1,6.2,0.1c3.1-3,6.7-5.5,11-6.7
		c6.7-1.8,13.5-1.8,20.3-0.4c8.5,1.8,12.6,6,14,14.4c0.3,1.9,0.2,3.9,0.3,5.8c0,4.5-0.7,5.1-5.3,5.2c-11.2,0.2-22.3-0.7-33.5,0.6
		c-16.4,1.9-33.2,11-35.1,33.2c-1.3,15.9,4.9,35.6,26.6,41.2c14.6,3.8,29.2,4.1,42.4-5.1c2.4-1.7,5-0.7,5.5,2
		c0.5,3.3,2.4,4.2,5.4,4.1c6.8-0.1,13.7,0,20.5,0c4.7,0,5.5-0.8,5.5-5.4c0-14,0-28,0-41.9C533.5,209.1,533.5,209.1,533.4,209.1z
		 M490.9,229.3c-8.1,3.3-16.5,3.3-24.7,0.2c-5.5-2.1-8.1-7-7.8-13.6c0.2-5.9,3.1-10,8.7-12c2.5-0.9,5.2-1.4,7.9-1.4
		c7,0,14.1,0,21.1,0c4.8,0,5.4,0.6,5.5,5.4c0,0.8,0,1.5,0,2.3C502,218.6,499.4,225.8,490.9,229.3z"/>
	<path class="st0" d="M772.7,175.4c-1.9-12-6-23-14.4-32.1c-11.6-12.4-26.3-16.9-42.8-16.3c-22.4,0.8-38.7,11.1-47.3,31.9
		c-8.8,21.3-8.7,43.4-1.2,65.1c5.7,16.6,17.5,27.5,34.9,31.7c8.7,2.1,17.6,2.5,26.5,2c14.1-0.8,26.5-5.7,36.9-15.4
		c3.1-3,3.3-5.8,0.2-8.9c-3.5-3.5-7.1-7-10.7-10.5c-2.9-2.8-5.2-3-8.3-0.4c-8.5,7.2-18.4,9.1-29.1,8.1c-12.1-1.1-20.3-8.3-23.1-20.3
		c-1.2-5.2,0.9-7.9,6.3-7.9c11.1,0,22.1,0,33.2,0c11.2,0,22.3,0,33.5,0c4.5,0,6.4-1.9,6.5-6.2C773.7,189.2,773.8,182.3,772.7,175.4z
		 M735.3,180.4c-6,0-11.9,0-17.9,0c-5.8,0-11.7,0-17.5,0c-4.2,0-6.5-2.6-5.8-6.7c1.5-9,9.1-20.1,23.4-20.2
		c14.9-0.1,22.3,11.1,23.9,20C742.2,177.9,740,180.4,735.3,180.4z"/>
	<path class="st0" d="M1031.4,168.8c-2.2-13.9-9.1-25-21-32.9c-12.9-8.7-27.2-10.4-42-8.1c-19.8,3.1-33.6,14.2-40.2,33.4
		c-3.4,10-3.5,20.6-3.7,31.1c0.2,7.7,0.4,15.4,1.7,23c2.4,14.3,9.2,25.7,21.3,33.8c13,8.8,27.4,9.9,42.4,8
		c19.5-2.5,36.8-18.1,40.8-37.2C1034.2,202.9,1034.1,185.8,1031.4,168.8z M999.7,211.8c-1.8,10.7-10.1,17.4-21,17.3
		c-10.7-0.1-18.7-6.8-20.5-17.5c-1.1-6.4-1.5-12.9-1.4-19.4c-0.1-6.4,0.3-12.8,1.4-19.1c1.9-10.7,9.9-17.5,20.6-17.5
		c11,0,19.3,6.6,21,17.3C1001.8,185.9,1001.8,198.9,999.7,211.8z"/>
	<path class="st1" d="M93.6,103.6c0-1.8,0-3.2,0-4.5c0-10.1,0-20.2,0-30.2c0-4.3,3.2-7.4,7.4-7.4c3.8,0,7.4,3.3,7.4,7.2
		c0.1,14,0,28,0,42c0,2.3-1.1,3.9-2.9,5.1c-2.7,1.7-5.6,2.8-8.8,2.8c-10.3,0-20.6,0-30.9,0c-4.9,0-8-3-8-7.4c0-4.5,3.1-7.4,7.9-7.4
		C74.9,103.6,84,103.6,93.6,103.6z"/>
</g>
</svg>
