<?xml version="1.0" encoding="utf-8"?>
<!-- Generator: Adobe Illustrator 22.0.1, SVG Export Plug-In . SVG Version: 6.00 Build 0)  -->
<svg version="1.1" id="Layer_1" xmlns="http://www.w3.org/2000/svg" xmlns:xlink="http://www.w3.org/1999/xlink" x="0px" y="0px"
	 viewBox="0 0 1226 309" style="enable-background:new 0 0 1226 309;" xml:space="preserve">
<style type="text/css">
	.st0{fill:#173839;}
	.st1{fill:#6CDE93;}
</style>
<g>
	<path class="st1" d="M168.9,71.9c-7.2-38.7-41.8-67.2-87.1-67.2C75,4.8,63.2,7,52.2,12.6C21.9,27.9,5.8,52.6,4.5,86.5
		c-0.6,16.9,4.5,32.7,12.1,47.6c15.4,30.5,37.9,55.2,63.8,77.1c4.8,4.1,9.1,4,14,0c12.6-10.5,24.2-22,34.9-34.4
		c13-15.2,24.4-31.5,32.3-50C169.1,109.2,172.5,91,168.9,71.9z M144.7,118.1c-7.4,17.9-18.6,33.4-31.2,47.9
		c-8,9.2-16.7,17.9-26,26.2c-7.1-6.1-13.6-12.6-19.8-19.3c-13.2-14.1-25-29.3-33.7-46.6c-5.7-11.4-10.1-23.4-10.3-36.2
		c-0.4-25.8,10.5-45.8,33.1-58.3c37.5-20.7,83.1,0,93.1,41.8C153.4,88.9,150.5,103.7,144.7,118.1z"/>
	<path class="st1" d="M93.6,103.6c0-1.8,0-3.2,0-4.5c0-10.1,0-20.2,0-30.2c0-4.3,3.2-7.4,7.4-7.4c3.8,0,7.4,3.3,7.4,7.2
		c0.1,14,0,28,0,42c0,2.3-1.1,3.9-2.9,5.1c-2.7,1.7-5.6,2.8-8.8,2.8c-10.3,0-20.6,0-30.9,0c-4.9,0-8-3-8-7.4c0-4.5,3.1-7.4,7.9-7.4
		C74.9,103.6,84,103.6,93.6,103.6z"/>
</g>
</svg>
